<?xml version="1.0" encoding="utf-8"?>
<!-- Generator: Adobe Illustrator 24.3.0, SVG Export Plug-In . SVG Version: 6.00 Build 0)  -->
<svg version="1.1" id="Layer_1" xmlns="http://www.w3.org/2000/svg" xmlns:xlink="http://www.w3.org/1999/xlink" x="0px" y="0px"
	 viewBox="0 0 88 19" style="enable-background:new 0 0 88 19;" xml:space="preserve">
<style type="text/css">
	.st0{fill:#FFFFFF;}
</style>
<g>
	<g>
		<path class="st0" d="M31,16.4v1.7h-0.1v-1.7H31z"/>
		<path class="st0" d="M31.4,17.2c0-0.1,0-0.2,0-0.3h0.1c0,0,0,0.2,0,0.2c0.1-0.1,0.2-0.3,0.4-0.3c0.2,0,0.4,0.1,0.4,0.5v0.8h-0.1
			v-0.8c0-0.2-0.1-0.4-0.3-0.4c-0.3,0-0.4,0.2-0.4,0.5v0.6h-0.1V17.2z"/>
		<path class="st0" d="M32.8,18.1V17h-0.2v-0.1h0.2v-0.2c0-0.2,0.1-0.4,0.3-0.4c0,0,0.1,0,0.1,0v0.1c0,0-0.1,0-0.1,0
			c-0.1,0-0.2,0.1-0.2,0.3v0.2h0.3V17h-0.3v1.1H32.8z"/>
		<path class="st0" d="M33.4,16.3h0.1v0.2h-0.1V16.3z M33.4,16.9h0.1v1.2h-0.1V16.9z"/>
		<path class="st0" d="M33.9,17.2c0-0.1,0-0.2,0-0.3H34c0,0,0,0.2,0,0.2c0.1-0.1,0.2-0.3,0.4-0.3c0.2,0,0.4,0.1,0.4,0.5v0.8h-0.1
			v-0.8c0-0.2-0.1-0.4-0.3-0.4c-0.3,0-0.4,0.2-0.4,0.5v0.6h-0.1V17.2z"/>
		<path class="st0" d="M35.2,16.3h0.1v0.2h-0.1V16.3z M35.2,16.9h0.1v1.2h-0.1V16.9z"/>
		<path class="st0" d="M35.6,16.9h0.2v-0.4h0.1v0.4h0.3V17h-0.3v0.8c0,0.1,0,0.2,0.1,0.2c0,0,0.1,0,0.1,0v0.1c0,0-0.1,0-0.2,0
			c-0.2,0-0.2-0.1-0.2-0.3V17h-0.2V16.9z"/>
		<path class="st0" d="M36.5,17.5c0,0.3,0.2,0.5,0.4,0.5c0.2,0,0.3-0.1,0.3-0.2h0.1c-0.1,0.2-0.2,0.3-0.5,0.3
			c-0.4,0-0.5-0.3-0.5-0.6c0-0.3,0.2-0.6,0.5-0.6c0.4,0,0.5,0.3,0.5,0.6c0,0,0,0.1,0,0.1H36.5z M37.3,17.4c0-0.2-0.1-0.4-0.4-0.4
			c-0.2,0-0.4,0.2-0.4,0.4H37.3z"/>
		<path class="st0" d="M38.3,16.4h0.6c0.5,0,0.8,0.3,0.8,0.8c0,0.5-0.3,0.9-0.8,0.9h-0.6V16.4z M38.5,18h0.4c0.4,0,0.7-0.3,0.7-0.7
			c0-0.4-0.2-0.7-0.7-0.7h-0.4V18z"/>
		<path class="st0" d="M41,17.5c0,0.3-0.2,0.6-0.5,0.6c-0.3,0-0.5-0.3-0.5-0.6c0-0.3,0.2-0.6,0.5-0.6C40.8,16.8,41,17.1,41,17.5z
			 M40.1,17.5c0,0.3,0.2,0.5,0.4,0.5c0.3,0,0.4-0.2,0.4-0.5c0-0.3-0.1-0.5-0.4-0.5C40.2,17,40.1,17.2,40.1,17.5z"/>
		<path class="st0" d="M41.1,16.9h0.2v-0.4h0.1v0.4h0.3V17h-0.3v0.8c0,0.1,0,0.2,0.1,0.2c0,0,0.1,0,0.1,0v0.1c0,0-0.1,0-0.2,0
			c-0.2,0-0.2-0.1-0.2-0.3V17h-0.2V16.9z"/>
		<path class="st0" d="M42.1,17.7c0,0.2,0.2,0.3,0.3,0.3c0.2,0,0.3-0.1,0.3-0.2c0-0.1-0.1-0.2-0.3-0.3c-0.3-0.1-0.4-0.2-0.4-0.3
			c0-0.2,0.1-0.3,0.4-0.3c0.3,0,0.4,0.2,0.4,0.3h-0.1c0-0.1-0.1-0.2-0.3-0.2c-0.2,0-0.3,0.1-0.3,0.2c0,0.1,0.1,0.2,0.3,0.2
			c0.3,0.1,0.4,0.2,0.4,0.4c0,0.2-0.2,0.4-0.4,0.4c-0.3,0-0.4-0.1-0.5-0.4H42.1z"/>
		<path class="st0" d="M45.2,17.2c0,0.5-0.2,0.9-0.8,0.9c-0.5,0-0.8-0.4-0.8-0.9c0-0.5,0.3-0.9,0.8-0.9
			C44.9,16.4,45.2,16.7,45.2,17.2z M43.8,17.2c0,0.4,0.2,0.8,0.6,0.8c0.4,0,0.6-0.4,0.6-0.8c0-0.4-0.2-0.7-0.6-0.7
			C44,16.5,43.8,16.8,43.8,17.2z"/>
		<path class="st0" d="M45.6,18.1V17h-0.2v-0.1h0.2v-0.2c0-0.2,0.1-0.4,0.3-0.4c0,0,0.1,0,0.1,0v0.1c0,0-0.1,0-0.1,0
			c-0.1,0-0.2,0.1-0.2,0.3v0.2H46V17h-0.3v1.1H45.6z"/>
		<path class="st0" d="M47,16.4v1.7h-0.1v-1.7H47z"/>
		<path class="st0" d="M47.4,17.2c0-0.1,0-0.2,0-0.3h0.1c0,0,0,0.2,0,0.2c0.1-0.1,0.2-0.3,0.4-0.3c0.2,0,0.4,0.1,0.4,0.5v0.8h-0.1
			v-0.8c0-0.2-0.1-0.4-0.3-0.4c-0.3,0-0.4,0.2-0.4,0.5v0.6h-0.1V17.2z"/>
		<path class="st0" d="M48.8,17.2c0-0.1,0-0.2,0-0.3h0.1c0,0,0,0.2,0,0.2c0.1-0.1,0.2-0.3,0.4-0.3c0.2,0,0.4,0.1,0.4,0.5v0.8h-0.1
			v-0.8c0-0.2-0.1-0.4-0.3-0.4c-0.3,0-0.4,0.2-0.4,0.5v0.6h-0.1V17.2z"/>
		<path class="st0" d="M51.1,17.5c0,0.3-0.2,0.6-0.5,0.6c-0.3,0-0.5-0.3-0.5-0.6c0-0.3,0.2-0.6,0.5-0.6
			C50.9,16.8,51.1,17.1,51.1,17.5z M50.1,17.5c0,0.3,0.2,0.5,0.4,0.5c0.3,0,0.4-0.2,0.4-0.5c0-0.3-0.1-0.5-0.4-0.5
			C50.2,17,50.1,17.2,50.1,17.5z"/>
		<path class="st0" d="M51.3,16.9c0.2,0.6,0.3,0.9,0.4,1.1h0c0-0.1,0.2-0.5,0.4-1.1h0.1l-0.5,1.2h-0.1l-0.4-1.2H51.3z"/>
		<path class="st0" d="M53.3,17.9c0,0.1,0,0.2,0,0.2h-0.1c0,0,0-0.1,0-0.2c0,0.1-0.1,0.2-0.4,0.2c-0.3,0-0.4-0.2-0.4-0.4
			c0-0.3,0.2-0.4,0.6-0.4c0.1,0,0.2,0,0.2,0v-0.1c0-0.1,0-0.3-0.3-0.3c-0.2,0-0.3,0.1-0.3,0.2h-0.1c0-0.1,0.1-0.3,0.4-0.3
			c0.3,0,0.4,0.1,0.4,0.4V17.9z M53.2,17.5c0,0-0.2,0-0.2,0c-0.3,0-0.4,0.1-0.4,0.3c0,0.2,0.1,0.3,0.3,0.3
			C53.1,18,53.2,17.8,53.2,17.5L53.2,17.5z"/>
		<path class="st0" d="M53.5,16.9h0.2v-0.4h0.1v0.4h0.3V17h-0.3v0.8c0,0.1,0,0.2,0.1,0.2c0,0,0.1,0,0.1,0v0.1c0,0-0.1,0-0.2,0
			c-0.2,0-0.2-0.1-0.2-0.3V17h-0.2V16.9z"/>
		<path class="st0" d="M54.4,16.3h0.1v0.2h-0.1V16.3z M54.4,16.9h0.1v1.2h-0.1V16.9z"/>
		<path class="st0" d="M55.9,17.5c0,0.3-0.2,0.6-0.5,0.6c-0.3,0-0.5-0.3-0.5-0.6c0-0.3,0.2-0.6,0.5-0.6
			C55.7,16.8,55.9,17.1,55.9,17.5z M54.9,17.5c0,0.3,0.2,0.5,0.4,0.5c0.3,0,0.4-0.2,0.4-0.5c0-0.3-0.1-0.5-0.4-0.5
			C55.1,17,54.9,17.2,54.9,17.5z"/>
		<path class="st0" d="M56.2,17.2c0-0.1,0-0.2,0-0.3h0.1c0,0,0,0.2,0,0.2c0.1-0.1,0.2-0.3,0.4-0.3c0.2,0,0.4,0.1,0.4,0.5v0.8H57
			v-0.8c0-0.2-0.1-0.4-0.3-0.4c-0.3,0-0.4,0.2-0.4,0.5v0.6h-0.1V17.2z"/>
	</g>
	<g>
		<g>
			<g>
				<g>
					<path class="st0" d="M34,15.6C34,15.6,34,15.6,34,15.6c0,0.1,0,0.1-0.1,0.1c0,0-0.1,0-0.1,0c0,0-0.1,0-0.2,0
						c-0.1,0-0.1,0-0.2,0c0,0-0.1,0-0.1,0c0,0,0,0-0.1,0c0,0,0,0,0-0.1v-3.3c0-0.3,0-0.6-0.1-0.8c-0.1-0.2-0.1-0.4-0.2-0.5
						c-0.1-0.2-0.2-0.3-0.4-0.4c-0.2-0.1-0.4-0.1-0.6-0.1c-0.3,0-0.6,0.1-0.8,0.3c-0.3,0.2-0.6,0.5-0.9,0.9v3.9c0,0,0,0,0,0.1
						c0,0,0,0-0.1,0c0,0-0.1,0-0.1,0c0,0-0.1,0-0.2,0c-0.1,0-0.1,0-0.2,0c0,0-0.1,0-0.1,0c0,0,0,0-0.1,0c0,0,0,0,0-0.1v-5.5
						c0,0,0,0,0-0.1c0,0,0,0,0.1-0.1c0,0,0.1,0,0.1,0c0,0,0.1,0,0.2,0c0.1,0,0.1,0,0.2,0c0,0,0.1,0,0.1,0c0,0,0,0,0.1,0.1
						c0,0,0,0,0,0.1v0.8c0.3-0.4,0.6-0.6,0.9-0.8c0.3-0.2,0.6-0.2,0.9-0.2c0.4,0,0.7,0.1,0.9,0.2c0.2,0.1,0.4,0.3,0.6,0.5
						c0.2,0.2,0.3,0.4,0.3,0.7c0.1,0.3,0.1,0.6,0.1,1V15.6z"/>
				</g>
				<g>
					<path class="st0" d="M39.1,15.6C39.1,15.6,39.1,15.6,39.1,15.6c0,0.1,0,0.1-0.1,0.1c0,0-0.1,0-0.1,0c0,0-0.1,0-0.2,0
						c-0.1,0-0.1,0-0.2,0c0,0-0.1,0-0.1,0c0,0,0,0-0.1,0c0,0,0,0,0-0.1v-3.3c0-0.3,0-0.6-0.1-0.8c-0.1-0.2-0.1-0.4-0.2-0.5
						c-0.1-0.2-0.2-0.3-0.4-0.4c-0.2-0.1-0.4-0.1-0.6-0.1c-0.3,0-0.6,0.1-0.8,0.3c-0.3,0.2-0.6,0.5-0.9,0.9v3.9c0,0,0,0,0,0.1
						c0,0,0,0-0.1,0c0,0-0.1,0-0.1,0c0,0-0.1,0-0.2,0c-0.1,0-0.1,0-0.2,0c0,0-0.1,0-0.1,0c0,0,0,0-0.1,0c0,0,0,0,0-0.1v-5.5
						c0,0,0,0,0-0.1c0,0,0,0,0.1-0.1c0,0,0.1,0,0.1,0c0,0,0.1,0,0.2,0c0.1,0,0.1,0,0.2,0c0,0,0.1,0,0.1,0c0,0,0,0,0.1,0.1
						c0,0,0,0,0,0.1v0.8c0.3-0.4,0.6-0.6,0.9-0.8c0.3-0.2,0.6-0.2,0.9-0.2c0.4,0,0.7,0.1,0.9,0.2c0.2,0.1,0.4,0.3,0.6,0.5
						c0.2,0.2,0.3,0.4,0.3,0.7c0.1,0.3,0.1,0.6,0.1,1V15.6z"/>
				</g>
				<g>
					<path class="st0" d="M44.9,12.8c0,0.4-0.1,0.8-0.2,1.2c-0.1,0.4-0.3,0.7-0.5,1c-0.2,0.3-0.5,0.5-0.8,0.6
						c-0.3,0.2-0.7,0.2-1.2,0.2c-0.4,0-0.8-0.1-1.1-0.2s-0.6-0.3-0.8-0.6c-0.2-0.3-0.4-0.6-0.5-0.9c-0.1-0.4-0.2-0.8-0.2-1.2
						c0-0.4,0.1-0.8,0.2-1.2c0.1-0.4,0.3-0.7,0.5-1c0.2-0.3,0.5-0.5,0.8-0.6c0.3-0.1,0.7-0.2,1.2-0.2c0.4,0,0.8,0.1,1.1,0.2
						c0.3,0.1,0.6,0.3,0.8,0.6c0.2,0.3,0.4,0.6,0.5,0.9C44.8,11.9,44.9,12.3,44.9,12.8z M44.1,12.8c0-0.3,0-0.6-0.1-0.9
						c-0.1-0.3-0.2-0.5-0.3-0.7c-0.1-0.2-0.3-0.4-0.6-0.5c-0.2-0.1-0.5-0.2-0.9-0.2c-0.3,0-0.6,0.1-0.8,0.2
						c-0.2,0.1-0.4,0.3-0.6,0.5c-0.2,0.2-0.3,0.5-0.3,0.7s-0.1,0.6-0.1,0.9c0,0.3,0,0.6,0.1,0.9c0.1,0.3,0.2,0.5,0.3,0.7
						c0.1,0.2,0.3,0.4,0.6,0.5c0.2,0.1,0.5,0.2,0.9,0.2c0.3,0,0.6-0.1,0.8-0.2c0.2-0.1,0.4-0.3,0.6-0.5S44,14,44,13.8
						C44.1,13.5,44.1,13.2,44.1,12.8z"/>
				</g>
				<g>
					<path class="st0" d="M50.2,15.6C50.2,15.6,50.2,15.6,50.2,15.6c0,0.1,0,0.1-0.1,0.1c0,0-0.1,0-0.1,0c0,0-0.1,0-0.2,0
						c-0.1,0-0.1,0-0.2,0c0,0-0.1,0-0.1,0c0,0,0,0-0.1,0c0,0,0,0,0-0.1v-0.8c-0.3,0.3-0.6,0.6-0.9,0.7c-0.3,0.2-0.7,0.3-1,0.3
						c-0.4,0-0.7-0.1-1-0.2c-0.3-0.2-0.5-0.4-0.7-0.6c-0.2-0.3-0.3-0.6-0.4-0.9c-0.1-0.4-0.1-0.7-0.1-1.1c0-0.5,0.1-0.9,0.2-1.3
						c0.1-0.4,0.3-0.7,0.4-1c0.2-0.3,0.4-0.5,0.7-0.6c0.3-0.1,0.6-0.2,1-0.2c0.3,0,0.6,0.1,0.9,0.2c0.3,0.1,0.5,0.4,0.8,0.7V7.4
						c0,0,0,0,0-0.1c0,0,0,0,0.1,0c0,0,0.1,0,0.1,0c0,0,0.1,0,0.2,0c0.1,0,0.1,0,0.2,0c0,0,0.1,0,0.1,0c0,0,0,0,0.1,0c0,0,0,0,0,0.1
						V15.6z M49.5,11.6c-0.3-0.4-0.6-0.6-0.9-0.8c-0.3-0.2-0.6-0.3-0.9-0.3c-0.3,0-0.5,0.1-0.7,0.2c-0.2,0.1-0.4,0.3-0.5,0.5
						c-0.1,0.2-0.2,0.5-0.3,0.7c-0.1,0.3-0.1,0.6-0.1,0.8c0,0.3,0,0.6,0.1,0.9c0,0.3,0.1,0.5,0.2,0.8c0.1,0.2,0.3,0.4,0.5,0.5
						c0.2,0.1,0.4,0.2,0.7,0.2c0.1,0,0.3,0,0.4-0.1c0.1,0,0.3-0.1,0.4-0.2c0.1-0.1,0.3-0.2,0.5-0.4s0.3-0.3,0.5-0.5V11.6z"/>
				</g>
				<g>
					<path class="st0" d="M55.9,12.8c0,0.4-0.1,0.8-0.2,1.2c-0.1,0.4-0.3,0.7-0.5,1c-0.2,0.3-0.5,0.5-0.8,0.6
						c-0.3,0.2-0.7,0.2-1.2,0.2c-0.4,0-0.8-0.1-1.1-0.2s-0.6-0.3-0.8-0.6c-0.2-0.3-0.4-0.6-0.5-0.9c-0.1-0.4-0.2-0.8-0.2-1.2
						c0-0.4,0.1-0.8,0.2-1.2c0.1-0.4,0.3-0.7,0.5-1c0.2-0.3,0.5-0.5,0.8-0.6c0.3-0.1,0.7-0.2,1.2-0.2c0.4,0,0.8,0.1,1.1,0.2
						c0.3,0.1,0.6,0.3,0.8,0.6c0.2,0.3,0.4,0.6,0.5,0.9C55.8,11.9,55.9,12.3,55.9,12.8z M55.1,12.8c0-0.3,0-0.6-0.1-0.9
						c-0.1-0.3-0.2-0.5-0.3-0.7c-0.1-0.2-0.3-0.4-0.6-0.5c-0.2-0.1-0.5-0.2-0.9-0.2c-0.3,0-0.6,0.1-0.8,0.2
						c-0.2,0.1-0.4,0.3-0.6,0.5c-0.2,0.2-0.3,0.5-0.3,0.7c-0.1,0.3-0.1,0.6-0.1,0.9c0,0.3,0,0.6,0.1,0.9c0.1,0.3,0.2,0.5,0.3,0.7
						c0.1,0.2,0.3,0.4,0.6,0.5c0.2,0.1,0.5,0.2,0.9,0.2c0.3,0,0.6-0.1,0.8-0.2c0.2-0.1,0.4-0.3,0.6-0.5s0.3-0.5,0.3-0.7
						C55.1,13.5,55.1,13.2,55.1,12.8z"/>
				</g>
				<g>
					<path class="st0" d="M59.1,15.2c0,0.1,0,0.2,0,0.2c0,0.1,0,0.1-0.1,0.1c0,0-0.1,0.1-0.1,0.1c-0.1,0-0.1,0-0.2,0.1
						c-0.1,0-0.2,0-0.2,0c-0.1,0-0.2,0-0.2,0c-0.3,0-0.5,0-0.7-0.1c-0.2-0.1-0.3-0.2-0.5-0.3c-0.1-0.1-0.2-0.3-0.3-0.6
						c-0.1-0.2-0.1-0.5-0.1-0.8v-3.4h-0.8c-0.1,0-0.1,0-0.1-0.1c0-0.1,0-0.1,0-0.2c0-0.1,0-0.1,0-0.1c0,0,0-0.1,0-0.1
						c0,0,0,0,0.1-0.1c0,0,0,0,0.1,0h0.8V8.6c0,0,0,0,0-0.1c0,0,0,0,0.1-0.1c0,0,0.1,0,0.1,0c0,0,0.1,0,0.2,0c0.1,0,0.1,0,0.2,0
						c0,0,0.1,0,0.1,0c0,0,0,0,0.1,0.1c0,0,0,0,0,0.1V10h1.5c0,0,0.1,0,0.1,0c0,0,0,0,0.1,0.1c0,0,0,0.1,0,0.1c0,0,0,0.1,0,0.1
						c0,0.1,0,0.2-0.1,0.2c0,0.1-0.1,0.1-0.1,0.1h-1.5v3.3c0,0.4,0.1,0.7,0.2,1c0.1,0.2,0.3,0.3,0.7,0.3c0.1,0,0.2,0,0.3,0
						c0.1,0,0.1,0,0.2-0.1c0.1,0,0.1,0,0.2-0.1c0,0,0.1,0,0.1,0c0,0,0,0,0.1,0c0,0,0,0,0,0c0,0,0,0.1,0,0.1
						C59.1,15.1,59.1,15.2,59.1,15.2z"/>
				</g>
				<g>
					<path class="st0" d="M63.2,14.1c0,0.3,0,0.5-0.1,0.7c-0.1,0.2-0.2,0.4-0.4,0.5c-0.2,0.1-0.4,0.3-0.6,0.3
						c-0.3,0.1-0.5,0.1-0.8,0.1c-0.2,0-0.4,0-0.5,0c-0.2,0-0.3-0.1-0.5-0.1c-0.1,0-0.3-0.1-0.3-0.1c-0.1-0.1-0.2-0.1-0.2-0.1
						c0,0-0.1-0.1-0.1-0.2c0-0.1,0-0.1,0-0.2c0-0.1,0-0.1,0-0.1c0,0,0-0.1,0-0.1c0,0,0,0,0-0.1c0,0,0,0,0.1,0c0,0,0.1,0,0.2,0.1
						c0.1,0.1,0.2,0.1,0.3,0.2c0.1,0.1,0.3,0.1,0.5,0.2c0.2,0.1,0.4,0.1,0.6,0.1c0.2,0,0.4,0,0.5-0.1c0.2,0,0.3-0.1,0.4-0.2
						c0.1-0.1,0.2-0.2,0.3-0.3c0.1-0.1,0.1-0.3,0.1-0.4c0-0.2,0-0.3-0.1-0.4c-0.1-0.1-0.2-0.2-0.3-0.3c-0.1-0.1-0.3-0.2-0.4-0.2
						c-0.2-0.1-0.3-0.1-0.5-0.2c-0.2-0.1-0.3-0.1-0.5-0.2c-0.2-0.1-0.3-0.2-0.4-0.3c-0.1-0.1-0.2-0.3-0.3-0.4
						c-0.1-0.2-0.1-0.4-0.1-0.6c0-0.2,0-0.4,0.1-0.6c0.1-0.2,0.2-0.3,0.3-0.5c0.2-0.1,0.3-0.3,0.6-0.4c0.2-0.1,0.5-0.1,0.8-0.1
						c0.1,0,0.3,0,0.4,0c0.1,0,0.3,0.1,0.4,0.1c0.1,0,0.2,0.1,0.3,0.1c0.1,0,0.1,0.1,0.2,0.1c0,0,0.1,0.1,0.1,0.1c0,0,0,0,0,0.1
						c0,0,0,0.1,0,0.1c0,0,0,0.1,0,0.1c0,0,0,0.1,0,0.1c0,0,0,0.1,0,0.1c0,0,0,0,0,0.1c0,0,0,0-0.1,0c0,0-0.1,0-0.1-0.1
						c-0.1,0-0.1-0.1-0.3-0.1c-0.1-0.1-0.2-0.1-0.4-0.1c-0.1,0-0.3-0.1-0.5-0.1c-0.2,0-0.4,0-0.5,0.1c-0.1,0-0.3,0.1-0.4,0.2
						c-0.1,0.1-0.2,0.2-0.2,0.3c0,0.1-0.1,0.2-0.1,0.4c0,0.2,0,0.3,0.1,0.4c0.1,0.1,0.2,0.2,0.3,0.3c0.1,0.1,0.3,0.2,0.5,0.2
						c0.2,0.1,0.3,0.1,0.5,0.2c0.2,0.1,0.3,0.1,0.5,0.2c0.2,0.1,0.3,0.2,0.5,0.3c0.1,0.1,0.2,0.3,0.3,0.4
						C63.2,13.7,63.2,13.9,63.2,14.1z"/>
				</g>
			</g>
		</g>
		<g>
			<g>
				<circle class="st0" cx="26.5" cy="9.5" r="0.4"/>
			</g>
			<g>
				<circle class="st0" cx="26" cy="8.8" r="0.4"/>
			</g>
			<g>
				<circle class="st0" cx="25.6" cy="8" r="0.4"/>
			</g>
			<g>
				<circle class="st0" cx="25.5" cy="7.1" r="0.4"/>
			</g>
			<g>
				<circle class="st0" cx="25.5" cy="6.3" r="0.4"/>
			</g>
			<g>
				<circle class="st0" cx="25.8" cy="5.6" r="0.3"/>
			</g>
			<g>
				<circle class="st0" cx="26.2" cy="5" r="0.3"/>
			</g>
			<g>
				<circle class="st0" cx="26.8" cy="4.7" r="0.2"/>
			</g>
			<g>
				<circle class="st0" cx="27.6" cy="10.8" r="0.4"/>
			</g>
			<g>
				<circle class="st0" cx="27.1" cy="10.2" r="0.4"/>
			</g>
			<g>
				<circle class="st0" cx="28.1" cy="11.6" r="0.4"/>
			</g>
			<g>
				<circle class="st0" cx="28.5" cy="12.4" r="0.4"/>
			</g>
			<g>
				<circle class="st0" cx="28.5" cy="13.3" r="0.4"/>
			</g>
			<g>
				<circle class="st0" cx="28.5" cy="14.1" r="0.4"/>
			</g>
			<g>
				<circle class="st0" cx="28.2" cy="14.9" r="0.3"/>
			</g>
			<g>
				<circle class="st0" cx="27.8" cy="15.5" r="0.3"/>
			</g>
			<g>
				<circle class="st0" cx="27.2" cy="15.8" r="0.2"/>
			</g>
			<g>
				<circle class="st0" cx="27.7" cy="8.9" r="0.4"/>
			</g>
			<g>
				<circle class="st0" cx="28.1" cy="8" r="0.4"/>
			</g>
			<g>
				<circle class="st0" cx="28.2" cy="7.1" r="0.4"/>
			</g>
			<g>
				<circle class="st0" cx="28.2" cy="6.3" r="0.4"/>
			</g>
			<g>
				<circle class="st0" cx="27.9" cy="5.6" r="0.3"/>
			</g>
			<g>
				<circle class="st0" cx="27.5" cy="4.9" r="0.3"/>
			</g>
			<g>
				<circle class="st0" cx="26.8" cy="4.7" r="0.2"/>
			</g>
			<g>
				<circle class="st0" cx="26.1" cy="10.8" r="0.4"/>
			</g>
			<g>
				<circle class="st0" cx="25.6" cy="11.6" r="0.4"/>
			</g>
			<g>
				<circle class="st0" cx="25.2" cy="12.4" r="0.4"/>
			</g>
			<g>
				<circle class="st0" cx="25.2" cy="13.3" r="0.4"/>
			</g>
			<g>
				<circle class="st0" cx="25.2" cy="14.1" r="0.4"/>
			</g>
			<g>
				<circle class="st0" cx="25.5" cy="14.9" r="0.3"/>
			</g>
			<g>
				<circle class="st0" cx="25.9" cy="15.5" r="0.3"/>
			</g>
			<g>
				<circle class="st0" cx="26.5" cy="15.8" r="0.2"/>
			</g>
		</g>
		<g>
			<path class="st0" d="M27,0.9v1.4h-0.2V0.9c-0.6,0.1-1,0.8-1,1.6c0,0.9,0.5,1.6,1.2,1.6c0.6,0,1.2-0.7,1.2-1.6
				C28,1.6,27.5,1,27,0.9z M26.8,2.7c-0.1,0-0.2-0.1-0.2-0.2c0-0.1,0.1-0.2,0.2-0.2c0.1,0,0.2,0.1,0.2,0.2C27,2.6,26.9,2.7,26.8,2.7
				z"/>
		</g>
	</g>
</g>
</svg>
